<?xml version="1.0" encoding="utf-8"?>
<!-- Generator: Adobe Illustrator 22.0.1, SVG Export Plug-In . SVG Version: 6.00 Build 0)  -->
<svg version="1.1" id="Слой_1" xmlns="http://www.w3.org/2000/svg" xmlns:xlink="http://www.w3.org/1999/xlink" x="0px" y="0px"
	 viewBox="0 0 218.7 48.4" style="enable-background:new 0 0 218.7 48.4;" xml:space="preserve">
<style type="text/css">
	.st0{clip-path:url(#SVGID_2_);}
	.st1{clip-path:url(#SVGID_4_);fill:#F2F2F2;}
	.st2{clip-path:url(#SVGID_6_);fill:url(#SVGID_7_);}
	.st3{clip-path:url(#SVGID_9_);fill:#00419E;}
	.st4{clip-path:url(#SVGID_11_);}
	.st5{clip-path:url(#SVGID_13_);}
	.st6{clip-path:url(#SVGID_17_);}
	.st7{clip-path:url(#SVGID_19_);}
	.st8{clip-path:url(#SVGID_21_);}
	.st9{clip-path:url(#SVGID_25_);}
	.st10{clip-path:url(#SVGID_27_);}
	.st11{clip-path:url(#SVGID_29_);}
	.st12{clip-path:url(#SVGID_33_);fill:url(#SVGID_34_);}
	.st13{clip-path:url(#SVGID_36_);fill:#DF56E0;}
	.st14{clip-path:url(#SVGID_36_);fill:#AF23C7;}
	.st15{clip-path:url(#SVGID_38_);fill:url(#SVGID_39_);}
	.st16{clip-path:url(#SVGID_41_);fill:#00A0E3;}
	.st17{clip-path:url(#SVGID_41_);fill:#00CBFC;}
	.st18{clip-path:url(#SVGID_43_);}
	.st19{clip-path:url(#SVGID_45_);}
	.st20{clip-path:url(#SVGID_47_);}
	.st21{clip-path:url(#SVGID_51_);fill:url(#SVGID_52_);}
	.st22{clip-path:url(#SVGID_54_);}
	.st23{clip-path:url(#SVGID_56_);}
	.st24{clip-path:url(#SVGID_58_);}
	.st25{clip-path:url(#SVGID_62_);fill:#FF7600;}
	.st26{clip-path:url(#SVGID_64_);}
	.st27{clip-path:url(#SVGID_66_);}
	.st28{clip-path:url(#SVGID_68_);}
	.st29{clip-path:url(#SVGID_72_);fill:url(#SVGID_73_);}
	.st30{clip-path:url(#SVGID_75_);fill:url(#SVGID_76_);}
	.st31{clip-path:url(#SVGID_78_);fill:url(#SVGID_79_);}
	.st32{clip-path:url(#SVGID_81_);fill:url(#SVGID_82_);}
	.st33{clip-path:url(#SVGID_84_);fill:url(#SVGID_85_);}
	.st34{clip-path:url(#SVGID_87_);fill:url(#SVGID_88_);}
	.st35{clip-path:url(#SVGID_90_);}
	.st36{clip-path:url(#SVGID_92_);}
	.st37{clip-path:url(#SVGID_94_);fill:url(#SVGID_95_);}
	.st38{clip-path:url(#SVGID_97_);fill:#F8C900;}
	.st39{clip-path:url(#SVGID_97_);}
	.st40{clip-path:url(#SVGID_99_);}
	.st41{clip-path:url(#SVGID_97_);fill:#00E700;}
	.st42{clip-path:url(#SVGID_97_);fill:#7EEF72;}
	.st43{clip-path:url(#SVGID_97_);fill:#00C800;}
	.st44{clip-path:url(#SVGID_97_);fill:#00BFFF;}
	.st45{opacity:0.5;clip-path:url(#SVGID_103_);}
	.st46{clip-path:url(#SVGID_105_);}
	.st47{clip-path:url(#SVGID_107_);fill:url(#SVGID_108_);}
	.st48{opacity:0.5;clip-path:url(#SVGID_110_);}
	.st49{clip-path:url(#SVGID_112_);}
	.st50{clip-path:url(#SVGID_114_);fill:url(#SVGID_115_);}
	.st51{clip-path:url(#SVGID_117_);fill:#FFFFFF;}
</style>
<g>
	<defs>
		<rect id="SVGID_1_" width="218.7" height="48.4"/>
	</defs>
	<clipPath id="SVGID_2_">
		<use xlink:href="#SVGID_1_"  style="overflow:visible;"/>
	</clipPath>
	<g class="st0">
		<defs>
			<rect id="SVGID_3_" y="0" width="218.7" height="48.4"/>
		</defs>
		<clipPath id="SVGID_4_">
			<use xlink:href="#SVGID_3_"  style="overflow:visible;"/>
		</clipPath>
		<path class="st1" d="M34.2,23.1c0,5.6-4.6,10.2-10.2,10.2c-5.6,0-10.2-4.6-10.2-10.2S18.3,12.9,24,12.9
			C29.6,12.9,34.2,17.5,34.2,23.1"/>
	</g>
	<g class="st0">
		<defs>
			<path id="SVGID_5_" d="M10.4,16.1c-2.6,4.5-2.5,9.9,0,14.7c1.9-1,4.2-2.3,4.7-2.6c-1.6-3.2-1.7-6.5,0-9.4c0,0,0,0,0.1-0.2
				L10.5,16C10.4,16.1,10.4,16.1,10.4,16.1"/>
		</defs>
		<clipPath id="SVGID_6_">
			<use xlink:href="#SVGID_5_"  style="overflow:visible;"/>
		</clipPath>
		
			<linearGradient id="SVGID_7_" gradientUnits="userSpaceOnUse" x1="0" y1="48.3655" x2="1" y2="48.3655" gradientTransform="matrix(6.7148 0 0 6.7148 8.4256 -301.3355)">
			<stop  offset="0" style="stop-color:#0763C2"/>
			<stop  offset="0.1844" style="stop-color:#0763C2"/>
			<stop  offset="0.9603" style="stop-color:#1D67CA"/>
			<stop  offset="1" style="stop-color:#1D67CA"/>
		</linearGradient>
		<rect x="7.8" y="16" class="st2" width="7.4" height="14.8"/>
	</g>
	<g class="st0">
		<defs>
			<rect id="SVGID_8_" y="0" width="218.7" height="48.4"/>
		</defs>
		<clipPath id="SVGID_9_">
			<use xlink:href="#SVGID_8_"  style="overflow:visible;"/>
		</clipPath>
		<path class="st3" d="M10.4,30.8c-2.5-4.8-2.6-10.2,0-14.7c0,0,0,0,0,0l0,0c-0.1,0.1-0.1,0.1-0.1,0.1C7.8,20.7,7.8,26,10.4,30.8
			c1.8-1,4.1-2.3,4.6-2.6c0,0,0,0,0,0C14.4,28.6,12.2,29.8,10.4,30.8"/>
	</g>
	<g class="st0">
		<defs>
			<path id="SVGID_10_" d="M10.4,16.1c-2.6,4.5-2.5,9.9,0,14.7c1.9-1,4.2-2.3,4.7-2.6c-1.6-3.2-1.7-6.5,0-9.4c0,0,0,0,0.1-0.2
				L10.5,16C10.4,16.1,10.4,16.1,10.4,16.1"/>
		</defs>
		<clipPath id="SVGID_11_">
			<use xlink:href="#SVGID_10_"  style="overflow:visible;"/>
		</clipPath>
		<g class="st4">
			<g>
				<defs>
					<rect id="SVGID_12_" x="-3.9" y="15.3" width="40.9" height="38.1"/>
				</defs>
				<clipPath id="SVGID_13_">
					<use xlink:href="#SVGID_12_"  style="overflow:visible;"/>
				</clipPath>
				<g class="st5">
					<defs>
						<rect id="SVGID_14_" x="-3.9" y="15.3" width="40.9" height="38.1"/>
					</defs>
					<clipPath id="SVGID_15_">
						<use xlink:href="#SVGID_14_"  style="overflow:visible;"/>
					</clipPath>
					<g style="clip-path:url(#SVGID_15_);">
						
							<image style="overflow:visible;" width="115" height="107" xlink:href="9C72B687.png"  transform="matrix(0.3556 0 0 0.3556 -3.9119 15.2919)">
						</image>
					</g>
				</g>
			</g>
		</g>
	</g>
	<g class="st0">
		<defs>
			<path id="SVGID_16_" d="M10.4,16.1c-2.6,4.5-2.5,9.9,0,14.7c1.9-1,4.2-2.3,4.7-2.6c-1.6-3.2-1.7-6.5,0-9.4c0,0,0,0,0.1-0.2
				L10.5,16C10.4,16.1,10.4,16.1,10.4,16.1"/>
		</defs>
		<clipPath id="SVGID_17_">
			<use xlink:href="#SVGID_16_"  style="overflow:visible;"/>
		</clipPath>
		<g class="st6">
			<g>
				<defs>
					<rect id="SVGID_18_" x="-3.9" y="-6.4" width="40.5" height="38.1"/>
				</defs>
				<clipPath id="SVGID_19_">
					<use xlink:href="#SVGID_18_"  style="overflow:visible;"/>
				</clipPath>
				<g class="st7">
					<defs>
						<rect id="SVGID_20_" x="-3.9" y="-6.4" width="40.5" height="38.1"/>
					</defs>
					<clipPath id="SVGID_21_">
						<use xlink:href="#SVGID_20_"  style="overflow:visible;"/>
					</clipPath>
					<g class="st8">
						<defs>
							<rect id="SVGID_22_" x="-3.9" y="-6.4" width="40.5" height="38.1"/>
						</defs>
						<clipPath id="SVGID_23_">
							<use xlink:href="#SVGID_22_"  style="overflow:visible;"/>
						</clipPath>
						<g style="clip-path:url(#SVGID_23_);">
							
								<image style="overflow:visible;" width="114" height="107" xlink:href="9C72B68C.png"  transform="matrix(0.3556 0 0 0.3556 -3.9119 -6.4014)">
							</image>
						</g>
					</g>
				</g>
			</g>
		</g>
	</g>
	<g class="st0">
		<defs>
			<path id="SVGID_24_" d="M9.3,31.5c-0.4,0.2-0.4,0.3-0.4,0.3c3.1,5.2,8.5,8.3,14.9,8.5l0-6.5c-4.3-0.1-7.3-2-9.1-5.3
				c0,0,0,0-0.1,0c-0.1,0-0.1,0.1,0,0L9.3,31.5z"/>
		</defs>
		<clipPath id="SVGID_25_">
			<use xlink:href="#SVGID_24_"  style="overflow:visible;"/>
		</clipPath>
		<g class="st9">
			<g>
				<defs>
					<rect id="SVGID_26_" x="10.7" y="16" width="41.6" height="38.4"/>
				</defs>
				<clipPath id="SVGID_27_">
					<use xlink:href="#SVGID_26_"  style="overflow:visible;"/>
				</clipPath>
				<g class="st10">
					<defs>
						<rect id="SVGID_28_" x="10.7" y="16" width="41.6" height="38.4"/>
					</defs>
					<clipPath id="SVGID_29_">
						<use xlink:href="#SVGID_28_"  style="overflow:visible;"/>
					</clipPath>
					<g class="st11">
						<defs>
							<rect id="SVGID_30_" x="10.7" y="16" width="41.6" height="38.4"/>
						</defs>
						<clipPath id="SVGID_31_">
							<use xlink:href="#SVGID_30_"  style="overflow:visible;"/>
						</clipPath>
						<g style="clip-path:url(#SVGID_31_);">
							
								<image style="overflow:visible;" width="117" height="108" xlink:href="9C72B68D.png"  transform="matrix(0.3556 0 0 0.3556 10.6689 16.0031)">
							</image>
						</g>
					</g>
				</g>
			</g>
		</g>
	</g>
	<g class="st0">
		<defs>
			<path id="SVGID_32_" d="M9.3,31.5c-0.4,0.2-0.4,0.3-0.4,0.3c3.1,5.2,8.5,8.3,14.9,8.5l0-6.5c-4.3-0.1-7.3-2-9.1-5.3
				c0,0,0,0-0.1,0c-0.1,0-0.1,0.1,0,0L9.3,31.5z"/>
		</defs>
		<clipPath id="SVGID_33_">
			<use xlink:href="#SVGID_32_"  style="overflow:visible;"/>
		</clipPath>
		
			<linearGradient id="SVGID_34_" gradientUnits="userSpaceOnUse" x1="0" y1="48.3655" x2="1" y2="48.3655" gradientTransform="matrix(-13.3689 -15.0665 15.0665 -13.3689 -705.7451 688.3596)">
			<stop  offset="0" style="stop-color:#D334E0"/>
			<stop  offset="8.914410e-02" style="stop-color:#D334E0"/>
			<stop  offset="1" style="stop-color:#E25DDF"/>
		</linearGradient>
		<polygon class="st12" points="29.7,35 17.2,20.9 3,33.6 15.5,47.7 		"/>
	</g>
	<g class="st0">
		<defs>
			<rect id="SVGID_35_" y="0" width="218.7" height="48.4"/>
		</defs>
		<clipPath id="SVGID_36_">
			<use xlink:href="#SVGID_35_"  style="overflow:visible;"/>
		</clipPath>
		<path class="st13" d="M8.9,31.8c0,0,0.2-0.1,0.4-0.2l5.4-3.1c-0.3,0.1,0,0,0,0c1.8,3.3,4.8,5.3,9.1,5.3l0,6.4h0l0-6.5
			c-4.3-0.1-7.3-2-9.1-5.3c0,0-0.3,0.1,0,0l-5.4,3.1C8.9,31.7,8.9,31.7,8.9,31.8C8.9,31.8,8.9,31.8,8.9,31.8"/>
		<path class="st14" d="M8.9,31.7C8.9,31.7,8.9,31.7,8.9,31.7c3.1,5.2,8.5,8.3,14.9,8.6v-0.1C17.4,39.9,12,36.8,8.9,31.7"/>
	</g>
	<g class="st0">
		<defs>
			<path id="SVGID_37_" d="M23.7,6.5L23.7,6.5c-6,0.1-11.3,3.2-14.8,8.6l5.9,3.4c1.8-3.5,5.7-5.3,8.9-5.2c0,0,0-0.1,0-0.2
				c0-0.1,0-0.2,0-0.2L23.7,6.5C23.7,6.5,23.7,6.5,23.7,6.5"/>
		</defs>
		<clipPath id="SVGID_38_">
			<use xlink:href="#SVGID_37_"  style="overflow:visible;"/>
		</clipPath>
		
			<linearGradient id="SVGID_39_" gradientUnits="userSpaceOnUse" x1="2.711662e-05" y1="48.3655" x2="1" y2="48.3655" gradientTransform="matrix(14.8063 0 0 14.8063 8.9086 -703.6045)">
			<stop  offset="0" style="stop-color:#00BFFF"/>
			<stop  offset="8.914410e-02" style="stop-color:#00BFFF"/>
			<stop  offset="1" style="stop-color:#00A4FF"/>
		</linearGradient>
		<rect x="8.9" y="6.5" class="st15" width="14.8" height="12"/>
	</g>
	<g class="st0">
		<defs>
			<rect id="SVGID_40_" y="0" width="218.7" height="48.4"/>
		</defs>
		<clipPath id="SVGID_41_">
			<use xlink:href="#SVGID_40_"  style="overflow:visible;"/>
		</clipPath>
		<path class="st16" d="M23.7,12.7c0,0,0,0.4,0,0.4c-3.2-0.1-7.1,1.7-8.9,5.2L9,15c0,0,0,0.1-0.1,0.1l5.9,3.4
			c1.8-3.5,5.7-5.3,8.9-5.2c0,0,0-0.4,0-0.4l0-6.4h0L23.7,12.7z"/>
		<path class="st17" d="M23.7,6.7C23.7,6.7,23.7,6.7,23.7,6.7l0-0.1c0,0,0,0,0,0c-6,0.1-11.3,3.2-14.8,8.6l0.1,0
			C12.4,9.8,17.7,6.8,23.7,6.7"/>
	</g>
	<g class="st0">
		<defs>
			<path id="SVGID_42_" d="M23.7,6.5L23.7,6.5c-6,0.1-11.3,3.2-14.8,8.6l5.9,3.4c1.8-3.5,5.7-5.3,8.9-5.2c0,0,0-0.1,0-0.2
				c0-0.1,0-0.2,0-0.2L23.7,6.5C23.7,6.5,23.7,6.5,23.7,6.5"/>
		</defs>
		<clipPath id="SVGID_43_">
			<use xlink:href="#SVGID_42_"  style="overflow:visible;"/>
		</clipPath>
		<g class="st18">
			<g>
				<defs>
					<rect id="SVGID_44_" x="10.3" y="-7.8" width="41.6" height="39.5"/>
				</defs>
				<clipPath id="SVGID_45_">
					<use xlink:href="#SVGID_44_"  style="overflow:visible;"/>
				</clipPath>
				<g class="st19">
					<defs>
						<rect id="SVGID_46_" x="10.3" y="-7.8" width="41.6" height="39.5"/>
					</defs>
					<clipPath id="SVGID_47_">
						<use xlink:href="#SVGID_46_"  style="overflow:visible;"/>
					</clipPath>
					<g class="st20">
						<defs>
							<rect id="SVGID_48_" x="10.3" y="-7.8" width="41.6" height="39.5"/>
						</defs>
						<clipPath id="SVGID_49_">
							<use xlink:href="#SVGID_48_"  style="overflow:visible;"/>
						</clipPath>
						<g style="clip-path:url(#SVGID_49_);">
							
								<image style="overflow:visible;" width="117" height="111" xlink:href="9C72B68F.png"  transform="matrix(0.3556 0 0 0.3556 10.3132 -7.824)">
							</image>
						</g>
					</g>
				</g>
			</g>
		</g>
	</g>
	<g class="st0">
		<defs>
			<path id="SVGID_50_" d="M31.8,17.8c2.5,4,2.7,7.8,0.4,10.8c0,0,0,0,0,0c-0.1,0-0.3,0-0.6,0.4l5.6,3.2c0.3-0.5,0.3-0.5,0.3-0.5
				c3.1-5.3,2.9-11.6-0.2-17.2L31.8,17.8z"/>
		</defs>
		<clipPath id="SVGID_51_">
			<use xlink:href="#SVGID_50_"  style="overflow:visible;"/>
		</clipPath>
		
			<linearGradient id="SVGID_52_" gradientUnits="userSpaceOnUse" x1="0" y1="48.3655" x2="1" y2="48.3655" gradientTransform="matrix(-0.3556 -18.3139 18.3139 -0.3556 -849.6177 43.3458)">
			<stop  offset="0" style="stop-color:#FF8800"/>
			<stop  offset="8.914410e-02" style="stop-color:#FF8800"/>
			<stop  offset="1" style="stop-color:#FF9700"/>
		</linearGradient>
		<polygon class="st21" points="40.9,32.2 40.6,14.3 31.2,14.4 31.6,32.4 		"/>
	</g>
	<g class="st0">
		<defs>
			<path id="SVGID_53_" d="M31.8,17.8c2.5,4,2.7,7.8,0.4,10.8c0,0,0,0,0,0c-0.1,0-0.3,0-0.6,0.4l5.6,3.2c0.3-0.5,0.3-0.5,0.3-0.5
				c3.1-5.3,2.9-11.6-0.2-17.2L31.8,17.8z"/>
		</defs>
		<clipPath id="SVGID_54_">
			<use xlink:href="#SVGID_53_"  style="overflow:visible;"/>
		</clipPath>
		<g class="st22">
			<g>
				<defs>
					<rect id="SVGID_55_" x="10.7" y="-7.8" width="41.6" height="39.5"/>
				</defs>
				<clipPath id="SVGID_56_">
					<use xlink:href="#SVGID_55_"  style="overflow:visible;"/>
				</clipPath>
				<g class="st23">
					<defs>
						<rect id="SVGID_57_" x="10.7" y="-7.8" width="41.6" height="39.5"/>
					</defs>
					<clipPath id="SVGID_58_">
						<use xlink:href="#SVGID_57_"  style="overflow:visible;"/>
					</clipPath>
					<g class="st24">
						<defs>
							<rect id="SVGID_59_" x="10.7" y="-7.8" width="41.6" height="39.5"/>
						</defs>
						<clipPath id="SVGID_60_">
							<use xlink:href="#SVGID_59_"  style="overflow:visible;"/>
						</clipPath>
						<g style="clip-path:url(#SVGID_60_);">
							
								<image style="overflow:visible;" width="117" height="111" xlink:href="9C72B68B.png"  transform="matrix(0.3556 0 0 0.3556 10.6689 -7.824)">
							</image>
						</g>
					</g>
				</g>
			</g>
		</g>
	</g>
	<g class="st0">
		<defs>
			<rect id="SVGID_61_" y="0" width="218.7" height="48.4"/>
		</defs>
		<clipPath id="SVGID_62_">
			<use xlink:href="#SVGID_61_"  style="overflow:visible;"/>
		</clipPath>
		<path class="st25" d="M33.7,22.7c-0.2-1.6-0.8-3.3-1.8-5l-0.1,0C32.8,19.5,33.5,21.2,33.7,22.7"/>
		<path class="st25" d="M39.6,20.9c0.5,3.6-0.2,7.3-2.1,10.5c0,0-0.1,0.1-0.6,0.8L31.5,29c0.1-0.1,0.1,0,0.1,0l5.6,3.2
			c0.3-0.5,0.3-0.5,0.3-0.5C39.5,28.3,40.1,24.6,39.6,20.9"/>
	</g>
	<g class="st0">
		<defs>
			<path id="SVGID_63_" d="M31.8,17.8c2.5,4,2.7,7.8,0.4,10.8c0,0,0,0,0,0c-0.1,0-0.3,0-0.6,0.4l5.6,3.2c0.3-0.5,0.3-0.5,0.3-0.5
				c3.1-5.3,2.9-11.6-0.2-17.2L31.8,17.8z"/>
		</defs>
		<clipPath id="SVGID_64_">
			<use xlink:href="#SVGID_63_"  style="overflow:visible;"/>
		</clipPath>
		<g class="st26">
			<g>
				<defs>
					<rect id="SVGID_65_" x="10.7" y="16" width="41.6" height="38.4"/>
				</defs>
				<clipPath id="SVGID_66_">
					<use xlink:href="#SVGID_65_"  style="overflow:visible;"/>
				</clipPath>
				<g class="st27">
					<defs>
						<rect id="SVGID_67_" x="10.7" y="16" width="41.6" height="38.4"/>
					</defs>
					<clipPath id="SVGID_68_">
						<use xlink:href="#SVGID_67_"  style="overflow:visible;"/>
					</clipPath>
					<g class="st28">
						<defs>
							<rect id="SVGID_69_" x="10.7" y="16" width="41.6" height="38.4"/>
						</defs>
						<clipPath id="SVGID_70_">
							<use xlink:href="#SVGID_69_"  style="overflow:visible;"/>
						</clipPath>
						<g style="clip-path:url(#SVGID_70_);">
							
								<image style="overflow:visible;" width="117" height="108" xlink:href="9C72B684.png"  transform="matrix(0.3556 0 0 0.3556 10.6689 16.0031)">
							</image>
						</g>
					</g>
				</g>
			</g>
		</g>
	</g>
	<g class="st0">
		<defs>
			<path id="SVGID_71_" d="M23.7,13.6c0.1,0,0.2,0,0.2,0c3.2,0.3,6.3,2.1,7.6,4.3l7.3-4.3C36.2,8.6,29.7,5,23.7,4.9L23.7,13.6z"/>
		</defs>
		<clipPath id="SVGID_72_">
			<use xlink:href="#SVGID_71_"  style="overflow:visible;"/>
		</clipPath>
		
			<linearGradient id="SVGID_73_" gradientUnits="userSpaceOnUse" x1="-3.266226e-06" y1="48.3655" x2="1" y2="48.3655" gradientTransform="matrix(15.183 0 0 -15.183 23.681 745.7702)">
			<stop  offset="0" style="stop-color:#00CEE3"/>
			<stop  offset="1" style="stop-color:#00BAC5"/>
		</linearGradient>
		<rect x="23.7" y="4.9" class="st29" width="15.2" height="13"/>
	</g>
	<g class="st0">
		<defs>
			<path id="SVGID_74_" d="M23.7,13.3c0.1,0,0.2,0,0.2,0c3.3,0.3,6.4,2.1,7.9,4.4l7.1-4.1c0,0,0-0.1,0-0.1l-7,4.1
				c-1.4-2.3-4.5-4.1-7.9-4.4c-0.1,0-0.2,0-0.2,0V13.3z"/>
		</defs>
		<clipPath id="SVGID_75_">
			<use xlink:href="#SVGID_74_"  style="overflow:visible;"/>
		</clipPath>
		
			<linearGradient id="SVGID_76_" gradientUnits="userSpaceOnUse" x1="7.535378e-06" y1="48.3655" x2="1" y2="48.3655" gradientTransform="matrix(15.1871 0 0 -15.1871 23.6769 750.04)">
			<stop  offset="0" style="stop-color:#00D5D3"/>
			<stop  offset="1" style="stop-color:#00BAC5"/>
		</linearGradient>
		<rect x="23.7" y="13.2" class="st30" width="15.2" height="4.6"/>
	</g>
	<g class="st0">
		<defs>
			<path id="SVGID_77_" d="M23.7,13.3c0.1,0,0.2,0,0.2,0c3.3,0.3,6.4,2.1,7.9,4.4l7.1-4.1c0,0,0-0.1,0-0.1l-7,4.1
				c-1.4-2.3-4.5-4.1-7.9-4.4c-0.1,0-0.2,0-0.2,0V13.3z"/>
		</defs>
		<clipPath id="SVGID_78_">
			<use xlink:href="#SVGID_77_"  style="overflow:visible;"/>
		</clipPath>
		
			<linearGradient id="SVGID_79_" gradientUnits="userSpaceOnUse" x1="0" y1="48.3655" x2="1" y2="48.3655" gradientTransform="matrix(4.7712 1.5114 1.5114 -4.7712 -39.624 246.9648)">
			<stop  offset="0" style="stop-color:#00D5D3"/>
			<stop  offset="1" style="stop-color:#00BAC5"/>
		</linearGradient>
		<polygon class="st31" points="25.1,8.9 40.2,13.6 37.5,22.2 22.4,17.4 		"/>
	</g>
	<g class="st0">
		<defs>
			<path id="SVGID_80_" d="M23.7,13.6L23.7,13.6l0-8.6c5.9,0,12.4,3.5,15.1,8.5l0.1,0C36.2,8.5,29.7,5,23.7,4.9L23.7,13.6z"/>
		</defs>
		<clipPath id="SVGID_81_">
			<use xlink:href="#SVGID_80_"  style="overflow:visible;"/>
		</clipPath>
		
			<linearGradient id="SVGID_82_" gradientUnits="userSpaceOnUse" x1="-7.309860e-06" y1="48.3655" x2="1" y2="48.3655" gradientTransform="matrix(-15.1338 0 0 15.1338 38.8149 -722.6777)">
			<stop  offset="0" style="stop-color:#00D5D3"/>
			<stop  offset="1" style="stop-color:#00BAC5"/>
		</linearGradient>
		<rect x="23.7" y="4.9" class="st32" width="15.1" height="8.7"/>
	</g>
	<g class="st0">
		<defs>
			<path id="SVGID_83_" d="M23.7,13.6L23.7,13.6l0-8.6c5.9,0,12.4,3.5,15.1,8.5l0.1,0C36.2,8.5,29.7,5,23.7,4.9L23.7,13.6z"/>
		</defs>
		<clipPath id="SVGID_84_">
			<use xlink:href="#SVGID_83_"  style="overflow:visible;"/>
		</clipPath>
		
			<linearGradient id="SVGID_85_" gradientUnits="userSpaceOnUse" x1="-7.309859e-06" y1="48.3655" x2="1" y2="48.3655" gradientTransform="matrix(-15.1338 0 0 -15.1338 38.8149 741.234)">
			<stop  offset="0" style="stop-color:#00D5D3"/>
			<stop  offset="1" style="stop-color:#00BAC5"/>
		</linearGradient>
		<rect x="23.7" y="4.9" class="st33" width="15.1" height="8.7"/>
	</g>
	<g class="st0">
		<defs>
			<path id="SVGID_86_" d="M23.7,33.5c-0.1,0,0.1,0.8,0,0.9v7.2c6.5-0.2,12.3-3.2,15.5-8.4l-7.1-3.9C30.3,31.9,27.1,33.4,23.7,33.5"
				/>
		</defs>
		<clipPath id="SVGID_87_">
			<use xlink:href="#SVGID_86_"  style="overflow:visible;"/>
		</clipPath>
		
			<linearGradient id="SVGID_88_" gradientUnits="userSpaceOnUse" x1="0" y1="48.3655" x2="1" y2="48.3655" gradientTransform="matrix(15.5093 0 0 -15.5093 23.6747 785.511)">
			<stop  offset="0" style="stop-color:#FFEA00"/>
			<stop  offset="0.978" style="stop-color:#FFD000"/>
			<stop  offset="1" style="stop-color:#FFD000"/>
		</linearGradient>
		<rect x="23.6" y="29.2" class="st34" width="15.6" height="12.3"/>
	</g>
	<g class="st0">
		<defs>
			<rect id="SVGID_96_" y="0" width="218.7" height="48.4"/>
		</defs>
		<clipPath id="SVGID_97_">
			<use xlink:href="#SVGID_96_"  style="overflow:visible;"/>
		</clipPath>
		<path class="st38" d="M23.7,33.5c0,0.1,0,0.4,0,0.6C23.7,34,23.7,33.7,23.7,33.5"/>
		<path class="st38" d="M23.7,41.5L23.7,41.5c6.5-0.1,12.3-3.1,15.5-8.3l0,0C35.9,38.3,30.1,41.3,23.7,41.5"/>
		<g class="st39">
			<g>
				<defs>
					<rect id="SVGID_98_" y="0" width="48.4" height="48.4"/>
				</defs>
				<clipPath id="SVGID_99_">
					<use xlink:href="#SVGID_98_"  style="overflow:visible;"/>
				</clipPath>
				<g class="st40">
					<defs>
						<rect id="SVGID_100_" y="0" width="48.4" height="48.4"/>
					</defs>
					<clipPath id="SVGID_101_">
						<use xlink:href="#SVGID_100_"  style="overflow:visible;"/>
					</clipPath>
					<g style="clip-path:url(#SVGID_101_);">
						
							<image style="overflow:visible;" width="136" height="136" xlink:href="9C72B699.png"  transform="matrix(0.3556 0 0 0.3556 0 -1.296997e-04)">
						</image>
					</g>
				</g>
			</g>
		</g>
		<path class="st41" d="M23.8,14.2c5.1,0,9.3,4.2,9.3,9.3c0,5.1-4.2,9.3-9.3,9.3s-9.3-4.2-9.3-9.3C14.5,18.4,18.7,14.2,23.8,14.2
			 M23.8,12.3c-6.2,0-11.2,5-11.2,11.2c0,6.2,5,11.2,11.2,11.2S35,29.7,35,23.5C35,17.4,30,12.3,23.8,12.3"/>
		<path class="st42" d="M23.8,32.9c5.1,0,9.3-4.2,9.3-9.3c0,0,0,0,0-0.1c0,5.1-4.2,9.2-9.3,9.2s-9.3-4.1-9.3-9.2c0,0,0,0,0,0.1
			C14.5,28.8,18.7,32.9,23.8,32.9"/>
		<path class="st42" d="M23.8,12.5c6.1,0,11.1,5,11.2,11.1c0,0,0,0,0-0.1c0-6.2-5-11.2-11.2-11.2s-11.2,5-11.2,11.2c0,0,0,0,0,0.1
			C12.7,17.4,17.7,12.5,23.8,12.5"/>
		<path class="st43" d="M23.8,14.1c-5.1,0-9.3,4.2-9.3,9.3c0,0,0,0,0,0.1c0-5.1,4.2-9.2,9.3-9.2s9.3,4.1,9.3,9.2c0,0,0,0,0-0.1
			C33.1,18.3,29,14.1,23.8,14.1"/>
		<path class="st43" d="M23.8,34.6c-6.1,0-11.1-5-11.2-11.1c0,0,0,0,0,0.1c0,6.2,5,11.2,11.2,11.2S35,29.7,35,23.5c0,0,0,0,0-0.1
			C35,29.6,30,34.6,23.8,34.6"/>
		<path class="st44" d="M28.2,18.7c0.7,0,1.3,0.6,1.3,1.3c0,0.7-0.6,1.3-1.3,1.3h-3.1v7c0,0.7-0.6,1.3-1.3,1.3
			c-0.7,0-1.3-0.6-1.3-1.3v-7h-3c-0.7,0-1.3-0.6-1.3-1.3c0-0.7,0.6-1.3,1.3-1.3H28.2"/>
		<path class="st44" d="M31.1,26.2c0,1.5-1.5,1.9-2.2,1.9c-0.3,0-1-0.1-1.5-0.4c-0.5-0.3-1-0.9-1-2.1c0-0.9,0.3-1.6,0.8-2.1
			c0,0,0.8-0.7,1.6-0.7c0.5-0.1,1.1-0.1,1.8,0.2c0.2,0.1,0.5,0.2,0.4,0.7c-0.1,0.3-0.4,0.4-0.8,0.3c-0.2-0.1-0.4-0.1-0.5-0.1
			c-0.6-0.1-1.3,0.1-1.8,0.5c-0.2,0.1-0.3,0.3-0.4,0.5c0,0,0,0,0,0c0,0.1,0,0.2,0.2,0.2c0.7-0.5,1.6-0.6,2.2-0.3
			C30.7,24.9,31.1,25.5,31.1,26.2 M30.1,26.2c0-0.3-0.3-0.5-0.5-0.5c-0.4-0.1-0.9-0.1-1.4,0.2c0,0,0,0,0,0c0,0,0,0-0.1,0
			c-0.3,0.3-0.3,0.7,0.2,0.9c0.2,0.1,0.5,0.1,0.6,0.1C28.9,26.9,30.1,26.9,30.1,26.2"/>
	</g>
	<g class="st0">
		<defs>
			<path id="SVGID_102_" d="M19.5,18.7c-0.7,0-1.3,0.6-1.3,1.3c0,0.5,0.3,0.9,0.6,1.1c-0.1-0.2-0.2-0.4-0.2-0.7
				c0-0.7,0.6-1.3,1.3-1.3h8.7c0.2,0,0.5,0.1,0.7,0.2c-0.2-0.4-0.6-0.6-1.1-0.6H19.5z"/>
		</defs>
		<clipPath id="SVGID_103_">
			<use xlink:href="#SVGID_102_"  style="overflow:visible;"/>
		</clipPath>
		<g class="st45">
			<g>
				<defs>
					<rect id="SVGID_104_" x="18.2" y="18.7" width="11.2" height="2.4"/>
				</defs>
				<clipPath id="SVGID_105_">
					<use xlink:href="#SVGID_104_"  style="overflow:visible;"/>
				</clipPath>
				<g class="st46">
					<defs>
						<rect id="SVGID_106_" x="18.2" y="18.7" width="11.2" height="2.4"/>
					</defs>
					<clipPath id="SVGID_107_">
						<use xlink:href="#SVGID_106_"  style="overflow:visible;"/>
					</clipPath>
					
						<linearGradient id="SVGID_108_" gradientUnits="userSpaceOnUse" x1="-1.469463e-05" y1="48.3655" x2="1" y2="48.3655" gradientTransform="matrix(11.1627 0 0 11.1627 18.1942 -519.9668)">
						<stop  offset="0" style="stop-color:#0763C2"/>
						<stop  offset="0.1844" style="stop-color:#0763C2"/>
						<stop  offset="0.9603" style="stop-color:#1D67CA"/>
						<stop  offset="1" style="stop-color:#1D67CA"/>
					</linearGradient>
					<rect x="18.2" y="18.7" class="st47" width="11.2" height="2.4"/>
				</g>
			</g>
		</g>
	</g>
	<g class="st0">
		<defs>
			<path id="SVGID_109_" d="M22.5,21.8L22.5,21.8l0,6.5c0,0.5,0.3,0.9,0.6,1.1c-0.1-0.2-0.2-0.4-0.2-0.7v-7l-0.5-0.5L22.5,21.8z"/>
		</defs>
		<clipPath id="SVGID_110_">
			<use xlink:href="#SVGID_109_"  style="overflow:visible;"/>
		</clipPath>
		<g class="st48">
			<g>
				<defs>
					<rect id="SVGID_111_" x="22.5" y="21.3" width="0.6" height="8.1"/>
				</defs>
				<clipPath id="SVGID_112_">
					<use xlink:href="#SVGID_111_"  style="overflow:visible;"/>
				</clipPath>
				<g class="st49">
					<defs>
						<rect id="SVGID_113_" x="22.5" y="21.3" width="0.6" height="8.1"/>
					</defs>
					<clipPath id="SVGID_114_">
						<use xlink:href="#SVGID_113_"  style="overflow:visible;"/>
					</clipPath>
					
						<linearGradient id="SVGID_115_" gradientUnits="userSpaceOnUse" x1="-9.512593e-05" y1="48.3649" x2="1.0005" y2="48.3649" gradientTransform="matrix(0.6416 0 0 0.6416 22.4951 -5.6546)">
						<stop  offset="0" style="stop-color:#0763C2"/>
						<stop  offset="0.1844" style="stop-color:#0763C2"/>
						<stop  offset="0.9603" style="stop-color:#1D67CA"/>
						<stop  offset="1" style="stop-color:#1D67CA"/>
					</linearGradient>
					<rect x="22.5" y="21.3" class="st50" width="0.6" height="8.1"/>
				</g>
			</g>
		</g>
	</g>
	<g class="st0">
		<defs>
			<rect id="SVGID_116_" y="0" width="218.7" height="48.4"/>
		</defs>
		<clipPath id="SVGID_117_">
			<use xlink:href="#SVGID_116_"  style="overflow:visible;"/>
		</clipPath>
		<path class="st51" d="M144.3,27.7c0.3,0.5,0.7,0.9,1.1,1.1s1,0.4,1.6,0.4c0.4,0,0.7-0.1,1-0.2c0.3-0.1,0.6-0.3,0.8-0.5
			c0.2-0.2,0.4-0.4,0.6-0.7c0.1-0.3,0.2-0.6,0.2-1c0-0.4-0.1-0.7-0.3-1c-0.2-0.3-0.4-0.5-0.7-0.7c-0.3-0.2-0.6-0.3-1-0.4
			c-0.4-0.1-0.7-0.2-1.1-0.4c-0.4-0.1-0.8-0.3-1.1-0.4c-0.4-0.2-0.7-0.4-1-0.6c-0.3-0.2-0.5-0.6-0.7-0.9c-0.2-0.4-0.3-0.8-0.3-1.4
			c0-0.5,0.1-1,0.3-1.4c0.2-0.4,0.5-0.7,0.8-1c0.3-0.3,0.8-0.5,1.2-0.6c0.5-0.1,0.9-0.2,1.4-0.2c0.6,0,1.2,0.1,1.8,0.3
			c0.5,0.2,1,0.6,1.4,1.1l-0.9,0.7c-0.3-0.4-0.6-0.7-1-0.9c-0.4-0.2-0.8-0.3-1.3-0.3c-0.4,0-0.7,0-1,0.1c-0.3,0.1-0.6,0.2-0.8,0.4
			c-0.2,0.2-0.4,0.4-0.6,0.7c-0.1,0.3-0.2,0.6-0.2,1c0,0.6,0.2,1,0.4,1.4c0.3,0.3,0.7,0.6,1.1,0.7c0.4,0.2,0.9,0.3,1.5,0.5
			c0.5,0.1,1,0.3,1.5,0.6c0.4,0.2,0.8,0.6,1.1,1c0.3,0.4,0.4,1,0.4,1.7c0,0.5-0.1,1-0.3,1.4c-0.2,0.4-0.5,0.8-0.8,1
			c-0.3,0.3-0.7,0.5-1.2,0.6c-0.4,0.1-0.9,0.2-1.4,0.2c-0.8,0-1.5-0.1-2.1-0.4c-0.7-0.3-1.2-0.7-1.7-1.4L144.3,27.7z"/>
		<polygon class="st51" points="156.3,24.8 152,18.1 153.3,18.1 156.8,23.7 160.5,18.1 161.7,18.1 157.4,24.8 157.4,29.9 
			156.3,29.9 		"/>
		<path class="st51" d="M163.4,27.7c0.3,0.5,0.7,0.9,1.1,1.1s1,0.4,1.6,0.4c0.4,0,0.7-0.1,1-0.2c0.3-0.1,0.6-0.3,0.8-0.5
			c0.2-0.2,0.4-0.4,0.6-0.7c0.1-0.3,0.2-0.6,0.2-1c0-0.4-0.1-0.7-0.3-1c-0.2-0.3-0.4-0.5-0.7-0.7c-0.3-0.2-0.6-0.3-1-0.4
			c-0.4-0.1-0.7-0.2-1.1-0.4c-0.4-0.1-0.8-0.3-1.1-0.4c-0.4-0.2-0.7-0.4-1-0.6c-0.3-0.2-0.5-0.6-0.7-0.9c-0.2-0.4-0.3-0.8-0.3-1.4
			c0-0.5,0.1-1,0.3-1.4c0.2-0.4,0.5-0.7,0.8-1c0.3-0.3,0.7-0.5,1.2-0.6c0.5-0.1,0.9-0.2,1.4-0.2c0.6,0,1.2,0.1,1.8,0.3
			c0.5,0.2,1,0.6,1.4,1.1l-0.9,0.7c-0.3-0.4-0.6-0.7-1-0.9c-0.4-0.2-0.8-0.3-1.3-0.3c-0.4,0-0.7,0-1,0.1c-0.3,0.1-0.6,0.2-0.8,0.4
			c-0.2,0.2-0.4,0.4-0.6,0.7c-0.1,0.3-0.2,0.6-0.2,1c0,0.6,0.1,1,0.4,1.4c0.3,0.3,0.7,0.6,1.1,0.7c0.4,0.2,0.9,0.3,1.5,0.5
			c0.5,0.1,1,0.3,1.5,0.6c0.4,0.2,0.8,0.6,1.1,1c0.3,0.4,0.4,1,0.4,1.7c0,0.5-0.1,1-0.3,1.4c-0.2,0.4-0.5,0.8-0.8,1
			c-0.3,0.3-0.7,0.5-1.2,0.6c-0.4,0.1-0.9,0.2-1.4,0.2c-0.8,0-1.5-0.1-2.1-0.4c-0.7-0.3-1.2-0.7-1.7-1.4L163.4,27.7z"/>
		<polygon class="st51" points="175.2,19.1 171.1,19.1 171.1,18.1 180.3,18.1 180.3,19.1 176.2,19.1 176.2,29.9 175.2,29.9 		"/>
		<polygon class="st51" points="182.4,18.1 189.5,18.1 189.5,19.1 183.4,19.1 183.4,23.3 189.2,23.3 189.2,24.3 183.4,24.3 
			183.4,28.9 189.8,28.9 189.8,29.9 182.4,29.9 		"/>
		<polygon class="st51" points="192.4,18.1 194,18.1 198.3,28 202.6,18.1 204.1,18.1 204.1,29.9 203,29.9 203,19.5 203,19.5 
			198.5,29.9 198,29.9 193.5,19.5 193.5,19.5 193.5,29.9 192.4,29.9 		"/>
		<path class="st51" d="M207.2,27.7c0.3,0.5,0.7,0.9,1.1,1.1s1,0.4,1.6,0.4c0.4,0,0.7-0.1,1-0.2c0.3-0.1,0.6-0.3,0.8-0.5
			c0.2-0.2,0.4-0.4,0.6-0.7c0.1-0.3,0.2-0.6,0.2-1c0-0.4-0.1-0.7-0.3-1c-0.2-0.3-0.4-0.5-0.7-0.7c-0.3-0.2-0.6-0.3-1-0.4
			c-0.4-0.1-0.7-0.2-1.1-0.4c-0.4-0.1-0.8-0.3-1.1-0.4c-0.4-0.2-0.7-0.4-1-0.6c-0.3-0.2-0.5-0.6-0.7-0.9c-0.2-0.4-0.3-0.8-0.3-1.4
			c0-0.5,0.1-1,0.3-1.4c0.2-0.4,0.5-0.7,0.8-1c0.3-0.3,0.7-0.5,1.2-0.6c0.5-0.1,0.9-0.2,1.4-0.2c0.6,0,1.2,0.1,1.8,0.3
			c0.5,0.2,1,0.6,1.4,1.1l-0.9,0.7c-0.3-0.4-0.6-0.7-1-0.9c-0.4-0.2-0.8-0.3-1.3-0.3c-0.4,0-0.7,0-1,0.1c-0.3,0.1-0.6,0.2-0.8,0.4
			c-0.2,0.2-0.4,0.4-0.6,0.7c-0.1,0.3-0.2,0.6-0.2,1c0,0.6,0.2,1,0.4,1.4c0.3,0.3,0.7,0.6,1.1,0.7c0.4,0.2,0.9,0.3,1.5,0.5
			c0.5,0.1,1,0.3,1.5,0.6c0.4,0.2,0.8,0.6,1.1,1c0.3,0.4,0.4,1,0.4,1.7c0,0.5-0.1,1-0.3,1.4c-0.2,0.4-0.5,0.8-0.8,1
			c-0.3,0.3-0.7,0.5-1.2,0.6c-0.4,0.1-0.9,0.2-1.4,0.2c-0.8,0-1.5-0.1-2.1-0.4c-0.7-0.3-1.2-0.7-1.7-1.4L207.2,27.7z"/>
		<polygon class="st51" points="77.1,18.1 78.2,18.1 78.2,23.2 84.7,23.2 84.7,18.1 85.8,18.1 85.8,29.8 84.7,29.8 84.7,24.2 
			78.2,24.2 78.2,29.8 77.1,29.8 		"/>
		<polygon class="st51" points="88.8,18.1 95.9,18.1 95.9,19.1 89.9,19.1 89.9,23.2 95.6,23.2 95.6,24.2 89.9,24.2 89.9,28.8 
			96.2,28.8 96.2,29.8 88.8,29.8 		"/>
		<path class="st51" d="M102.8,18.1h1.1l4.9,11.7h-1.2l-1.3-3.1h-6.2l-1.3,3.1h-1.1L102.8,18.1z M103.3,19.3l-2.7,6.4h5.4
			L103.3,19.3z"/>
		<polygon class="st51" points="110.8,18.1 111.9,18.1 111.9,28.8 117.4,28.8 117.4,29.8 110.8,29.8 		"/>
		<polygon class="st51" points="120.6,19.1 116.5,19.1 116.5,18.1 125.7,18.1 125.7,19.1 121.7,19.1 121.7,29.8 120.6,29.8 		"/>
		<polygon class="st51" points="127.6,18.1 128.7,18.1 128.7,23.2 135.3,23.2 135.3,18.1 136.4,18.1 136.4,29.8 135.3,29.8 
			135.3,24.2 128.7,24.2 128.7,29.8 127.6,29.8 		"/>
		<path class="st51" d="M57,17.8H46.7c-0.8,0-1.5,0.7-1.5,1.5c0,0.8,0.7,1.5,1.5,1.5h3.6v7.7c0,0.8,0.6,1.5,1.5,1.5
			c0.8,0,1.5-0.6,1.5-1.5v-7.7H57c0.8,0,1.4-0.6,1.4-1.5C58.5,18.4,57.8,17.8,57,17.8"/>
		<path class="st51" d="M68,22.3c-1.7-0.5-3.9-0.3-5.9,0.8c-0.4,0.1-0.6-0.1-0.5-0.4c0,0,0-0.1,0-0.1c0.2-0.5,0.5-1,0.9-1.3
			c1.3-1,3.3-1,4.6-0.7c0.4,0.1,0.8,0.3,1.3,0.5c0.9,0.5,1.7,0.3,2-0.2c0.5-0.8,0.2-1.5-0.5-1.9c-1.9-1.2-3.7-1.3-5-1.3
			c-2.3,0-4,1.4-4.1,1.5c-0.1,0-0.1,0.1-0.1,0.1c-1.3,1.2-2,2.9-2,5.1c0,2.8,1.4,4.3,2.7,5c1.4,0.9,3.1,1,3.9,1c2,0,5.9-0.9,5.9-4.5
			C71.2,24.3,69.9,22.9,68,22.3 M65.3,27.9c-0.3,0-0.9,0-1.5-0.2c-1.3-0.4-1.4-1.6-0.5-2.2c0,0,0.1-0.1,0.1-0.1c0,0,0,0,0,0
			c1.3-0.8,2.8-0.8,3.7-0.5c0.4,0.1,1.3,0.4,1.3,1.2C68.5,27.9,65.3,27.9,65.3,27.9"/>
		<path class="st51" d="M216.7,19.8c-0.2,0.2-0.5,0.3-0.8,0.3c-0.3,0-0.6-0.1-0.8-0.3c-0.2-0.2-0.3-0.5-0.3-0.8
			c0-0.3,0.1-0.6,0.3-0.8c0.2-0.2,0.5-0.3,0.8-0.3c0.3,0,0.6,0.1,0.8,0.3c0.2,0.2,0.3,0.5,0.3,0.8C217.1,19.3,217,19.6,216.7,19.8
			 M215.3,18.3c-0.2,0.2-0.3,0.4-0.3,0.7c0,0.3,0.1,0.5,0.3,0.7c0.2,0.2,0.4,0.3,0.7,0.3c0.3,0,0.5-0.1,0.7-0.3
			c0.2-0.2,0.3-0.4,0.3-0.7c0-0.3-0.1-0.5-0.3-0.7c-0.2-0.2-0.4-0.3-0.7-0.3C215.7,18,215.5,18.1,215.3,18.3 M215.9,18.4
			c0.2,0,0.3,0,0.3,0c0.1,0.1,0.2,0.2,0.2,0.3c0,0.1,0,0.2-0.1,0.2c0,0-0.1,0-0.2,0.1c0.1,0,0.2,0.1,0.2,0.1c0,0.1,0.1,0.1,0.1,0.2
			v0.1c0,0,0,0.1,0,0.1c0,0,0,0.1,0,0.1l0,0h-0.2l0,0c0,0,0,0,0,0l0,0v-0.1c0-0.1,0-0.2-0.1-0.3c0,0-0.1,0-0.2,0h-0.2v0.5h-0.2v-1.2
			H215.9z M216.2,18.6c-0.1,0-0.1,0-0.3,0h-0.2V19h0.2c0.1,0,0.2,0,0.2,0c0.1,0,0.1-0.1,0.1-0.2C216.2,18.7,216.2,18.6,216.2,18.6"
			/>
	</g>
</g>
</svg>
